<?xml version="1.0" encoding="UTF-8" standalone="no"?>
<!DOCTYPE svg PUBLIC "-//W3C//DTD SVG 1.1//EN"
 "http://www.w3.org/Graphics/SVG/1.1/DTD/svg11.dtd">
<!-- Generated by graphviz version 2.43.0 (0)
 -->
<!-- Title: %3 Pages: 1 -->
<svg width="565pt" height="479pt"
 viewBox="0.00 0.00 564.82 479.00" xmlns="http://www.w3.org/2000/svg" xmlns:xlink="http://www.w3.org/1999/xlink">
<g id="graph0" class="graph" transform="scale(1 1) rotate(0) translate(4 475)">
<title>%3</title>
<polygon fill="#333333" stroke="transparent" points="-4,4 -4,-475 560.82,-475 560.82,4 -4,4"/>
<text text-anchor="middle" x="278.41" y="-9.2" font-family="Times,serif" font-size="16.00" fill="white">Network Map</text>
<!-- R5 -->
<g id="node1" class="node">
<title>R5</title>
<polygon fill="#006699" stroke="#006699" points="432.32,-223 355.32,-223 355.32,-150 432.32,-150 432.32,-223"/>
<text text-anchor="middle" x="393.82" y="-182.8" font-family="Helvetica,sans-Serif" font-size="14.00" fill="white">R5</text>
</g>
<!-- R1 -->
<g id="node2" class="node">
<title>R1</title>
<polygon fill="#006699" stroke="#006699" points="118.32,-347 41.32,-347 41.32,-274 118.32,-274 118.32,-347"/>
<text text-anchor="middle" x="79.82" y="-306.8" font-family="Helvetica,sans-Serif" font-size="14.00" fill="white">R1</text>
</g>
<!-- SW1 -->
<g id="node6" class="node">
<title>SW1</title>
<polygon fill="#006699" stroke="#006699" points="281.82,-223 191.82,-223 191.82,-150 281.82,-150 281.82,-223"/>
<text text-anchor="middle" x="236.82" y="-182.8" font-family="Helvetica,sans-Serif" font-size="14.00" fill="white">SW1</text>
</g>
<!-- R1&#45;&#45;SW1 -->
<g id="edge5" class="edge">
<title>R1&#45;&#45;SW1</title>
<path fill="none" stroke="green" stroke-dasharray="5,2" d="M112.73,-273.67C123.7,-262.61 136.32,-250.78 148.82,-241 162.05,-230.64 177.43,-220.68 191.6,-212.21"/>
<text text-anchor="middle" x="189.82" y="-244.8" font-family="Courier,monospace" font-size="14.00" fill="white"> &#160;&#160;&#160;&#160;&#160;&#160;&#160;&#160;&#160;&#160;&#160;</text>
<text text-anchor="middle" x="171.1" y="-201.01" font-family="Courier,monospace" font-size="14.00" fill="white">Eth0/1</text>
<text text-anchor="middle" x="92.23" y="-262.47" font-family="Courier,monospace" font-size="14.00" fill="white">Eth0/0</text>
</g>
<!-- R4 -->
<g id="node3" class="node">
<title>R4</title>
<polygon fill="#006699" stroke="#006699" points="537.32,-223 460.32,-223 460.32,-150 537.32,-150 537.32,-223"/>
<text text-anchor="middle" x="498.82" y="-182.8" font-family="Helvetica,sans-Serif" font-size="14.00" fill="white">R4</text>
</g>
<!-- R6 -->
<g id="node4" class="node">
<title>R6</title>
<polygon fill="#006699" stroke="#006699" points="485.32,-347 408.32,-347 408.32,-274 485.32,-274 485.32,-347"/>
<text text-anchor="middle" x="446.82" y="-306.8" font-family="Helvetica,sans-Serif" font-size="14.00" fill="white">R6</text>
</g>
<!-- R2 -->
<g id="node5" class="node">
<title>R2</title>
<polygon fill="#006699" stroke="#006699" points="327.32,-347 250.32,-347 250.32,-274 327.32,-274 327.32,-347"/>
<text text-anchor="middle" x="288.82" y="-306.8" font-family="Helvetica,sans-Serif" font-size="14.00" fill="white">R2</text>
</g>
<!-- R2&#45;&#45;SW1 -->
<g id="edge6" class="edge">
<title>R2&#45;&#45;SW1</title>
<path fill="none" stroke="green" stroke-dasharray="5,2" d="M317.94,-273.81C323.23,-263.1 325.5,-251.43 319.82,-241 311.53,-225.8 296.86,-214.26 282.14,-205.87"/>
<text text-anchor="middle" x="363.82" y="-244.8" font-family="Courier,monospace" font-size="14.00" fill="white"> &#160;&#160;&#160;&#160;&#160;&#160;&#160;&#160;&#160;&#160;&#160;</text>
<text text-anchor="middle" x="302.64" y="-194.67" font-family="Courier,monospace" font-size="14.00" fill="white">Eth0/2</text>
<text text-anchor="middle" x="297.44" y="-262.61" font-family="Courier,monospace" font-size="14.00" fill="white">Eth0/0</text>
</g>
<!-- SW2 -->
<g id="node8" class="node">
<title>SW2</title>
<polygon fill="#006699" stroke="#006699" points="333.82,-471 243.82,-471 243.82,-398 333.82,-398 333.82,-471"/>
<text text-anchor="middle" x="288.82" y="-430.8" font-family="Helvetica,sans-Serif" font-size="14.00" fill="white">SW2</text>
</g>
<!-- R2&#45;&#45;SW2 -->
<g id="edge7" class="edge">
<title>R2&#45;&#45;SW2</title>
<path fill="none" stroke="green" stroke-dasharray="5,2" d="M288.82,-347.12C288.82,-363.01 288.82,-381.7 288.82,-397.63"/>
<text text-anchor="middle" x="329.82" y="-368.8" font-family="Courier,monospace" font-size="14.00" fill="white"> &#160;&#160;&#160;&#160;&#160;&#160;&#160;&#160;&#160;&#160;&#160;</text>
<text text-anchor="middle" x="264.82" y="-386.43" font-family="Courier,monospace" font-size="14.00" fill="white">Eth0/11</text>
<text text-anchor="middle" x="268.32" y="-350.92" font-family="Courier,monospace" font-size="14.00" fill="white">Eth0/1</text>
</g>
<!-- SW1&#45;&#45;R1 -->
<g id="edge1" class="edge">
<title>SW1&#45;&#45;R1</title>
<path fill="none" stroke="green" stroke-dasharray="5,2" d="M191.42,-192.65C136.15,-199.97 47.68,-215.41 27.82,-241 17.11,-254.8 27.05,-270.29 41,-283.05"/>
<text text-anchor="middle" x="68.82" y="-244.8" font-family="Courier,monospace" font-size="14.00" fill="white"> &#160;&#160;&#160;&#160;&#160;&#160;&#160;&#160;&#160;&#160;&#160;</text>
<text text-anchor="middle" x="20.5" y="-271.85" font-family="Courier,monospace" font-size="14.00" fill="white">Eth0/0</text>
<text text-anchor="middle" x="170.92" y="-181.45" font-family="Courier,monospace" font-size="14.00" fill="white">Eth0/1</text>
</g>
<!-- SW1&#45;&#45;R6 -->
<g id="edge4" class="edge">
<title>SW1&#45;&#45;R6</title>
<path fill="none" stroke="green" stroke-dasharray="5,2" d="M281.95,-202.4C301.8,-208.86 325.42,-216.44 346.82,-223 374.25,-231.41 386.39,-223.1 408.82,-241 419.55,-249.57 427.73,-262.04 433.7,-274"/>
<text text-anchor="middle" x="462.82" y="-244.8" font-family="Courier,monospace" font-size="14.00" fill="white"> &#160;&#160;&#160;&#160;&#160;&#160;&#160;&#160;&#160;&#160;&#160;</text>
<text text-anchor="middle" x="413.2" y="-262.8" font-family="Courier,monospace" font-size="14.00" fill="white">Eth0/1</text>
<text text-anchor="middle" x="302.45" y="-206.2" font-family="Courier,monospace" font-size="14.00" fill="white">Eth0/5</text>
</g>
<!-- SW1&#45;&#45;R2 -->
<g id="edge2" class="edge">
<title>SW1&#45;&#45;R2</title>
<path fill="none" stroke="green" stroke-dasharray="5,2" d="M232.43,-223.35C232.38,-234.18 233.68,-245.87 237.82,-256 240.78,-263.25 245.23,-270.08 250.28,-276.28"/>
<text text-anchor="middle" x="278.82" y="-244.8" font-family="Courier,monospace" font-size="14.00" fill="white"> &#160;&#160;&#160;&#160;&#160;&#160;&#160;&#160;&#160;&#160;&#160;</text>
<text text-anchor="middle" x="229.78" y="-265.08" font-family="Courier,monospace" font-size="14.00" fill="white">Eth0/0</text>
<text text-anchor="middle" x="211.93" y="-227.15" font-family="Courier,monospace" font-size="14.00" fill="white">Eth0/2</text>
</g>
<!-- R3 -->
<g id="node7" class="node">
<title>R3</title>
<polygon fill="#006699" stroke="#006699" points="379.32,-99 302.32,-99 302.32,-26 379.32,-26 379.32,-99"/>
<text text-anchor="middle" x="340.82" y="-58.8" font-family="Helvetica,sans-Serif" font-size="14.00" fill="white">R3</text>
</g>
<!-- SW1&#45;&#45;R3 -->
<g id="edge3" class="edge">
<title>SW1&#45;&#45;R3</title>
<path fill="none" stroke="green" stroke-dasharray="5,2" d="M260.58,-149.74C268.25,-138.92 277.05,-127.2 285.82,-117 290.94,-111.04 296.62,-104.99 302.34,-99.2"/>
<text text-anchor="middle" x="326.82" y="-120.8" font-family="Courier,monospace" font-size="14.00" fill="white"> &#160;&#160;&#160;&#160;&#160;&#160;&#160;&#160;&#160;&#160;&#160;</text>
<text text-anchor="middle" x="281.84" y="-88" font-family="Courier,monospace" font-size="14.00" fill="white">Eth0/0</text>
<text text-anchor="middle" x="240.08" y="-138.54" font-family="Courier,monospace" font-size="14.00" fill="white">Eth0/3</text>
</g>
<!-- R3&#45;&#45;R5 -->
<g id="edge10" class="edge">
<title>R3&#45;&#45;R5</title>
<path fill="none" stroke="green" stroke-dasharray="5,2" d="M362.91,-99.21C366.11,-105.05 369.2,-111.11 371.82,-117 376.43,-127.39 380.54,-139.05 383.93,-149.76"/>
<text text-anchor="middle" x="417.82" y="-120.8" font-family="Courier,monospace" font-size="14.00" fill="white"> &#160;&#160;&#160;&#160;&#160;&#160;&#160;&#160;&#160;&#160;&#160;</text>
<text text-anchor="middle" x="363.43" y="-138.56" font-family="Courier,monospace" font-size="14.00" fill="white">Eth0/0</text>
<text text-anchor="middle" x="342.41" y="-103.01" font-family="Courier,monospace" font-size="14.00" fill="white">Eth0/2</text>
</g>
<!-- R3&#45;&#45;R4 -->
<g id="edge9" class="edge">
<title>R3&#45;&#45;R4</title>
<path fill="none" stroke="green" stroke-dasharray="5,2" d="M379.52,-73.17C405.6,-81.3 439.38,-95.16 462.82,-117 472.45,-125.98 479.98,-138.12 485.61,-149.69"/>
<text text-anchor="middle" x="515.82" y="-120.8" font-family="Courier,monospace" font-size="14.00" fill="white"> &#160;&#160;&#160;&#160;&#160;&#160;&#160;&#160;&#160;&#160;&#160;</text>
<text text-anchor="middle" x="465.11" y="-138.49" font-family="Courier,monospace" font-size="14.00" fill="white">Eth0/0</text>
<text text-anchor="middle" x="400.02" y="-61.97" font-family="Courier,monospace" font-size="14.00" fill="white">Eth0/1</text>
</g>
<!-- R3&#45;&#45;SW1 -->
<g id="edge8" class="edge">
<title>R3&#45;&#45;SW1</title>
<path fill="none" stroke="green" stroke-dasharray="5,2" d="M302.28,-65.16C266.28,-69 214.36,-80.93 188.82,-117 181.26,-127.67 184.95,-139.3 192.92,-149.9"/>
<text text-anchor="middle" x="229.82" y="-120.8" font-family="Courier,monospace" font-size="14.00" fill="white"> &#160;&#160;&#160;&#160;&#160;&#160;&#160;&#160;&#160;&#160;&#160;</text>
<text text-anchor="middle" x="172.42" y="-138.7" font-family="Courier,monospace" font-size="14.00" fill="white">Eth0/3</text>
<text text-anchor="middle" x="281.78" y="-53.96" font-family="Courier,monospace" font-size="14.00" fill="white">Eth0/0</text>
</g>
</g>
</svg>
